<svg viewBox="0 160 1620 750" xmlns="http://www.w3.org/2000/svg" role="img" aria-label="MPAY mark">
  <path d="M654.72916668 187.41429199q-29.0625 0-49.68750001 20.62499999-19.68749999 19.68749999-19.68749999 48.75t19.68749999 49.68750001q20.625 19.68749999 49.6875 19.6875l69.37500003 0q29.0625 0 49.68749996 20.62500002 19.68749999 20.625 19.68750001 49.68749998 0 28.125-19.68750001 48.74999999-20.625 20.625-49.68749999 20.625L306.91666668 465.85179198q-29.0625 0-49.68750001 20.62500002-19.68749999 19.68749999-19.6875 48.74999999t19.6875 48.75q20.625 20.625 49.68750001 20.625l347.81249999 0q29.0625 0 48.75000001 20.625 20.625 20.625 20.62499999 48.75000001 0 29.0625-20.62499999 49.68749999-19.68749999 20.625-48.75000001 20.62500001L515.04166666 744.289292q-28.125 0-48.74999998 19.68750001-20.625 20.625-20.62500001 49.68749998t20.62500001 48.75q20.625 20.625 48.74999998 20.62500001l426.56250001 0 109.6875-401.25000002 42.1875 401.25000002 151.875 0 171.5625-407.81250001-16.875 407.81250002 156.5625-1e-8 27.18749999-695.62500001-149.99999999-2e-8-233.4375 508.12500003-71.25-508.12500001L654.72916668 187.41429199zM445.66666667 187.41429199q29.0625 0 49.6875 20.62499999 19.68749999 19.68749999 19.68749999 48.75t-19.68749999 49.68750001q-20.625 19.68749999-49.6875 19.6875l-69.375 0q-29.0625 0-48.75-19.6875-20.625-20.625-20.62499999-49.68750001t20.62499999-48.75q19.68749999-20.625 48.75-20.62499999l69.375 0zM97.85416667 604.60179199q29.0625 0 49.6875-20.625 19.68749999-19.68749999 19.6875-48.75t-19.6875-48.74999999q-20.625-20.625-49.68749999-20.62500002t-48.75000001 20.62500002q-20.625 19.68749999-20.62500001 48.74999999t20.62500001 48.75q19.68749999 20.625 48.75 20.625z" fill="#00BB9E"/>
</svg>
