<svg viewBox="20 348 1338 301" xmlns="http://www.w3.org/2000/svg" role="img" aria-label="MPAY">
  <path d="M274.08003681 368.47147831h177.65246139l26.6704287 190.28582393 87.43087982-190.28582393h56.16498268l-10.17687434 260.50458573h-58.63817894l6.31668-152.71995718-64.23629534 152.71995718h-56.88354627l-15.79170132-150.26346902-41.07513438 150.26346902h-159.73849036q-10.52780087 0-18.26489756-7.72038858-7.72038618-7.36945964-7.72038863-18.26489759 0-10.87872743 7.72038863-18.59911601 7.73709919-7.36945964 18.26489756-7.36945962h52.30478836q10.87872743 0 18.26490004-7.73709916 7.72038618-7.72038618 7.72038615-18.59911355 0-10.52780087-7.72038615-18.24818949-7.38617015-7.73709919-18.26490004-7.7370967h-130.24393636q-10.87872743 0-18.61582655-7.72038865-7.36945964-7.36945964-7.36945962-18.24818699 0-10.89543794 7.36945962-18.26490005 7.73709919-7.72038618 18.61582655-7.72038611h156.22922255q10.87872743 0 18.59911602-7.72038865 7.38617015-7.72038618 7.38617016-18.26489759 0-10.87872743-7.38617016-18.59911598-7.72038618-7.72038618-18.59911602-7.72038617h-25.98528619q-10.87872743 0-18.59911356-7.38617265-7.36945964-7.72038618-7.36946207-18.59911355 0-10.87872743 7.36946207-18.24818946 7.72038618-7.73709919 18.59911356-7.73709918z m-78.29007455 0h-25.96857563q-10.89543794 0-18.26489758 7.73709918-7.72038618 7.36945964-7.7203886 18.24818946t7.7203886 18.59911355q7.36945964 7.38617015 18.26489758 7.38617265h25.96857563q10.87872743 0 18.61582657-7.38617265 7.36945964-7.72038618 7.36945962-18.59911355 0-10.87872743-7.36945962-18.24818946-7.73709919-7.73709919-18.61582657-7.73709918z m-130.24393637 156.22922503q-10.87872743 0-18.26490001-7.72038865-7.72038618-7.36945964-7.72038613-18.24818699 0-10.89543794 7.72038613-18.26490005 7.38617015-7.72038618 18.26490001-7.72038611t18.59911604 7.72038611q7.38617015 7.36945964 7.38617019 18.26490005 0 10.87872743-7.38617019 18.24818699-7.72038618 7.72038618-18.59911604 7.72038865z" fill="#00BB9E"/>
  <path d="M719.07179848 498.7321277h41.77698746q8.42224167 0 15.08984827-4.56204738 6.31668002-4.22783139 10.52780085-12.29914653t5.61482697-18.59911354q0.71856364-4.56204738 1.42041668-9.12409478 0.35092652-4.57875796 0.35092654-6.33339059 0-13.68614213-5.280611-19.30096902-5.26390043-5.61482698-15.79170128-5.61482699h-41.7769875l-11.93150699 75.83358883z m-20.72138578 130.24393634h-60.72703003l41.42606099-260.50458573h105.66235627q20.01953266 0 36.16216056 6.31668249 15.80841185 6.68431708 25.28343309 22.47601843t9.47502128 44.5844022q0 5.61482698-1.05277962 13.70285022-1.05277959 8.07131515-2.10556162 14.38799517-3.50926779 23.52880046-11.93150702 39.67142826-8.42224167 15.79170129-19.66860611 25.28343313-11.58058047 9.47502126-24.91579362 14.03706618-13.35192613 4.21112083-26.68714171 4.21112083h-58.63817888l-12.28243358 75.83358882z" fill="#545454"/>
  <path d="M941.11481716 527.15718906h54.76127408l-10.52780087-106.71513591-44.23347321 106.71513591z m-43.53162259 101.81887498h-62.14744672l120.76891508-260.50458573h75.8335888l37.91679321 260.50458573h-62.83258925l-5.63153747-47.39181443h-83.20304847l-20.70467518 47.39181443z" fill="#545454"/>
  <path d="M1214.42488163 628.97606404h-60.74374056l11.58058294-73.02617409-47.74274349-187.47841164h66.00764103l22.10838136 122.17262368 63.20022876-122.17262368h68.81505327l-111.64482282 187.47841164-11.58058049 73.02617409z" fill="#545454"/>
</svg>
