<?xml version="1.0" standalone="no"?><svg t="1779156661511" class="icon" viewBox="0 0 1024 1024" version="1.1" xmlns="http://www.w3.org/2000/svg" p-id="8897" xmlns:xlink="http://www.w3.org/1999/xlink" width="200" height="200"><path transform="translate(48 48) scale(1.153911 1.181030) translate(-262.937415 -95.567446)" d="M530.676382 95.920664H262.937415v261.292746h267.738967V95.920664z m-32.937544 229.172017H295.885998V128.074507h201.841802v197.018174zM329.861119 815.358758h133.792217V684.756538H329.861119v130.60222z m33.257648-261.756343v-65.290073h-66.868514v65.290073h66.868514zM697.947009 95.567446h-66.879552v65.24592h66.879552V95.567446z m368.70402 0.353218H798.912062v261.292746h267.738967V95.920664z m-32.926506 229.172017H831.860645V128.074507h201.863878v197.018174zM463.653336 161.155546H329.861119v130.591182h133.792217V161.155546z m536.051914 0H865.890956v130.591182h133.814294V161.155546zM564.298286 291.724652h67.221731v65.312149h66.89059v-65.312149h67.221731v-65.267996H631.144724V161.155546h-66.89059v72.906327h0.044152v57.662779z m302.067306 326.96915h-0.044152v-65.124502h-34.20692v-65.488757h101.285157v65.599138h66.879551v-65.599138h0.110381v-65.290072H765.246006v65.510833h-67.298997v-65.510833h-66.879552v65.510833h-66.393877v-42.121203h-0.430484v-23.38963h-200.89253v65.290072h134.476576v65.488757h133.582495v65.290073h0.11038v65.334224h66.879552v-65.334224h100.280694v65.819898h-66.482182v130.734677h66.901628V750.035572h67.276921v-65.841975h66.846438V618.903525H866.37663v-0.209723z m133.913636 262.606273h66.879552V750.55436h-66.879552v130.745715z m0-196.543537h-66.879551v65.256958h66.879551v-65.256958z m0-130.977515v130.756754h66.879552V553.779023h-66.879552zM262.970529 880.704021h267.72793V619.422313H262.970529v261.281708z m32.915469-229.138903h201.841802v197.018174H295.885998V651.565118z m335.634019 229.657691h66.89059V815.932737h-66.89059v65.290072zM764.82656 357.544551h-66.879551v65.256958h66.879551v-65.256958zM564.287248 815.424987h66.89059V684.679271h-66.89059v130.745716z m302.034192 0.496712h-67.641177v65.290072h67.641177v0.110381h66.89059V750.55436h-66.89059v65.367339z" fill="#0f172a" p-id="8898" data-spm-anchor-id="a313x.search_index.0.i8.1a8a3a81kK8oem" class=""></path></svg>