<?xml version="1.0" standalone="no"?><!DOCTYPE svg PUBLIC "-//W3C//DTD SVG 1.1//EN" "http://www.w3.org/Graphics/SVG/1.1/DTD/svg11.dtd"><svg t="1775011212552" class="icon" viewBox="0 0 3174 1024" version="1.1" xmlns="http://www.w3.org/2000/svg" p-id="54908" xmlns:xlink="http://www.w3.org/1999/xlink" width="619.921875" height="200"><path d="M1341.33333332 404.336c32.4-37.2 60.504-81.264 83.208-132.264l28.632 13.272c-10.8 22.32-21.6 43.032-33.504 62.16v223.128h-29.184v-178.512a416.736 416.736 0 0 1-37.8 46.224A417.984 417.984 0 0 0 1341.33333332 404.336z m2.16-137.04c36.192-36.144 63.744-73.32 81.6-111.048l27 14.88a507.768 507.768 0 0 1-98.328 129.096c-2.712-10.632-6.48-21.792-10.272-32.952z m217.728 165.744h-57.264v19.656c0 51-14.592 87.12-43.776 108.888a264.48 264.48 0 0 0-19.44-27.072c22.68-14.88 34.032-43.032 34.032-85.008v-45.168h115.08v73.848a1147.512 1147.512 0 0 0 45.36-39.84c2.712 12.24 4.872 23.376 7.584 32.928a993.144 993.144 0 0 0-54.024 45.696c-6.48 5.856-11.904 11.688-17.28 16.992l-22.176-27.096c7.56-7.44 11.904-18.048 11.904-30.792V433.04z m-99.96-136.008V192.896h27.552v75.456h35.664V159.968h28.632v107.856h35.664V192.368h27.552v118.464H1588.77333332v-13.8h-127.512z m8.64 37.728h137.76v29.76h-137.76v-29.76z m196.656-180.624l29.184 5.28a1300.392 1300.392 0 0 1-16.224 74.928h93.48v30.816h-20.544c-5.928 81.288-19.992 145.56-41.592 192.84a268.08 268.08 0 0 0 65.376 81.288c-6.48 11.16-12.432 21.768-18.384 32.928a336.504 336.504 0 0 1-63.192-82.32c-17.28 29.736-39.456 57.888-67.008 85.512-5.928-7.968-12.96-16.992-21.072-26.568 31.344-29.208 55.656-59.496 72.96-91.368-16.224-39.312-25.944-83.4-29.184-132.288-4.872 11.16-9.72 21.264-14.592 31.872a192.72 192.72 0 0 0-20.52-22.32c23.76-49.92 41.592-109.44 51.312-180.6z m56.184 110.496h-51.84l-1.104 4.248c0.552 57.912 8.64 108.912 24.864 152.472 12.408-35.064 21.6-87.12 28.08-156.72z m61.584 93.504c42.144-61.632 74.016-130.176 95.616-205.08l33.504 9.576a1037.904 1037.904 0 0 1-41.04 105.72v304.92h-31.344V330.488c-13.512 22.848-27.024 43.584-42.144 62.688l-14.592-35.04z m125.352-147.168h141a1907.52 1907.52 0 0 0-27.024-43.56l29.184-14.88c10.248 15.408 20.52 31.344 30.792 48.336l-18.912 9.576h149.64v29.76H1909.67733332V210.944z m23.76 69.072h255v28.68H1933.41333332v-28.68z m0 68.52h255v28.68H1933.41333332V348.56z m4.872 69.072h246.336v155.64h-33.48v-25.488h-179.376v25.488h-33.48v-155.64z m212.856 28.68h-179.376v72.24h179.376v-72.24z m82.104-233.208h196.656V152h35.64v61.104h187.464v30.792h-187.44v63.24h122.088v29.76c-25.92 56.28-62.688 103.584-110.208 141.288 46.992 24.96 107.52 43.032 181.512 53.664a614.064 614.064 0 0 0-24.864 37.2c-82.104-15.96-145.32-38.808-189.6-68.016-47.016 28.68-111.312 53.664-193.44 74.376-5.928-13.272-11.856-24.432-18.888-33.48 78.336-17.52 139.92-38.232 183.672-62.16-41.592-35.04-73.992-82.32-97.224-140.76h-42.696v-30.816h153.984V244.448h-196.656V213.104z m311.712 125.376H2354.85333332c21.072 51 51.312 91.368 91.296 120.576 44.832-33.456 77.784-73.296 98.88-120.576z m126.432 17.52c39.96-55.248 72.936-122.712 98.856-202.944l35.664 13.296a1300.608 1300.608 0 0 1-36.744 88.176v316.08h-34.56V322.016a667.608 667.608 0 0 1-49.2 74.4c-5.928-19.152-10.248-32.424-14.016-40.392z m125.88-106.248h198.24V156.776h35.136v92.976H3093.33333332v32.4h-62.664v215.16c0 44.088-20.544 66.408-61.056 67.464-13.512 0.528-35.112 0-64.824-0.528a493.032 493.032 0 0 0-7.032-38.256c27.552 2.136 49.176 3.192 64.32 3.192 13.488 0.528 22.128-2.64 27-8.496 4.848-5.304 7.008-16.464 7.008-33.48v-205.056h-198.792v-32.4z m28.08 99.864l29.184-18.048c17.808 24.96 38.352 57.912 62.112 98.28l-31.32 19.128c-20.544-38.784-40.536-72.24-59.976-99.36zM1688.70933332 688.568l-59.424 208.776H1597.41333332l-42.696-150.336a70.848 70.848 0 0 1-3.24-21.792h-0.528c-0.552 7.44-1.632 14.352-3.792 21.264l-43.2 150.864h-31.896l-61.584-208.8h30.24l43.248 157.8c2.16 6.912 3.24 14.352 3.24 21.24h1.08c0.528-5.28 2.16-12.72 4.32-21.24l45.912-157.776h27.024l43.752 158.832c1.632 5.328 2.712 11.688 3.792 20.184h0.528c0.552-5.832 1.632-12.72 3.792-20.712l41.592-158.304h29.712z m143.712 141.312h-106.44c0.552 15.936 4.872 28.152 13.512 36.648 8.64 8.496 19.992 13.296 35.112 13.296 16.752 0 32.4-5.328 46.992-15.96v23.376c-13.488 9.048-30.792 13.824-52.944 13.824-22.128 0-38.88-6.912-51.312-20.712-12.432-13.824-18.36-32.4-18.36-56.856 0-22.848 6.48-41.424 19.992-56.304 13.488-14.88 30.24-22.32 50.232-22.32s35.112 6.384 46.464 18.6c11.352 12.216 16.752 30.288 16.752 52.584v13.824z m-27.024-21.264c0-13.272-3.24-23.904-9.72-31.344-6.48-7.44-15.672-11.136-27.024-11.136-10.8 0-19.968 3.696-27.552 11.688-7.56 7.968-12.96 18.048-14.568 30.792h78.864z m211.776 80.232c-15.672 7.968-35.112 12.216-58.896 12.216-30.24 0-54.552-9.552-72.912-28.68-18.384-19.128-27.552-44.112-27.552-75.456 0-33.456 10.248-60.552 30.792-81.264 20.52-20.736 46.464-30.816 77.784-30.816 20.52 0 37.272 2.64 50.256 8.496v28.152c-15.12-8.496-31.896-12.216-50.256-12.216-23.76 0-43.2 7.968-57.792 23.376-14.592 15.408-22.152 36.648-22.152 62.688 0 24.96 7.008 44.64 21.072 59.52 14.04 14.856 31.872 22.296 54.552 22.296 21.072 0 39.432-4.8 55.104-13.824v25.512z m166.944 9.024H2157.09333332v-85.536c0-30.264-11.352-45.144-34.032-45.144-11.352 0-21.072 4.248-29.184 13.272-8.088 9.048-11.328 19.68-11.328 32.952v84.48h-27.024v-221.04h27.024v96.168h0.528c11.352-18.576 28.08-28.152 49.704-28.152 34.032 0 51.336 20.184 51.336 61.104v91.92z m48.624-139.2c15.12-9.024 32.4-13.8 52.392-13.8 36.72 0 55.104 19.128 55.104 56.856v96.144h-26.472v-22.848h-0.528c-10.272 17.52-25.944 26.568-46.464 26.568-14.592 0-26.472-3.72-35.112-11.688-8.64-7.968-12.96-18.6-12.96-31.872 0-27.624 16.728-44.088 50.232-48.864l44.832-6.384c0-24.432-10.272-36.648-30.792-36.648-18.36 0-34.56 5.832-49.704 18.048V758.72h-0.528z m44.832 68.544c-12.432 1.608-21.072 4.8-25.92 9.024-4.872 4.272-7.032 10.632-7.032 19.128 0 6.912 2.688 12.768 7.56 17.52 4.848 4.8 11.88 6.936 20.52 6.936 11.88 0 21.6-4.272 29.184-12.24 7.56-7.968 11.352-18.048 11.352-30.264v-14.352l-35.664 4.248z m179.352 69.072c-5.928 3.192-13.512 4.776-23.76 4.776-27.024 0-40.512-14.88-40.512-44.64v-86.04h-25.944v-21.792h25.92v-36.12l27.024-8.496v44.088h37.824v21.768H2419.65333332v81.288c0 9.576 1.632 17.016 4.872 21.264 3.24 4.248 9.168 6.36 16.728 6.36 5.952 0 11.352-1.584 15.672-4.776v22.32z m145.872-76.512v78.096h-27.024v-208.8h60.528c22.68 0 40.512 5.328 53.472 16.488 12.96 11.16 18.912 26.568 18.912 46.752 0 20.712-7.56 37.2-22.152 49.92-14.592 12.768-33.504 18.6-55.656 18.072h-28.08v-0.528z m0-107.304v83.4h25.392c16.752 0 29.712-3.72 38.352-11.16 8.64-7.44 12.96-18.048 12.96-31.872 0-27.096-16.2-40.368-48.624-40.368h-28.08z m135.048 46.224c15.12-9.048 32.424-13.824 52.416-13.824 36.72 0 55.104 19.128 55.104 56.856v96.144h-26.472v-22.848h-0.552c-10.248 17.52-25.92 26.568-46.44 26.568-14.592 0-26.472-3.72-35.136-11.688-8.64-7.968-12.96-18.6-12.96-31.872 0-27.624 16.752-44.088 50.256-48.864l44.832-6.384c0-24.432-10.272-36.648-30.792-36.648-18.384 0-34.56 5.832-49.704 18.048V758.72h-0.552z m44.856 68.52c-12.432 1.608-21.072 4.8-25.92 9.024-4.872 4.272-7.032 10.632-7.032 19.128 0 6.912 2.688 12.768 7.56 17.52 4.848 4.8 11.88 6.936 20.52 6.936 11.88 0 21.6-4.272 29.184-12.24 7.56-7.968 11.328-18.048 11.328-30.264v-14.352l-35.64 4.248z m230.136-78.624l-68.616 171.6c-12.96 31.872-30.792 47.808-54 47.808-6.48 0-12.432-0.528-17.304-2.136v-23.376c5.4 2.136 10.272 3.192 15.12 3.192 12.432 0 21.072-6.888 27.552-21.24l11.88-27.096-59.424-148.752h29.712l39.456 112.08 3.24 12.24h0.528a142.56 142.56 0 0 1 3.24-12.24l41.616-112.608h27v0.528z" fill="#393738" p-id="54909"></path><path d="M510.45333332 640.232a32.4 32.4 0 0 1-16.2 3.816 35.832 35.832 0 0 1-31.32-18.504l-2.16-5.448-98.28-217.272a18.048 18.048 0 0 1 16.2-25.584c3.768 0 7.56 1.08 10.8 3.792l115.56 82.8c8.64 5.424 18.36 8.688 29.688 8.688 6.48 0 12.96-1.08 18.36-3.264l545.424-245.04C1000.77333332 108.224 839.85333332 32 657.33333332 32 359.25333332 32 117.33333332 235.112 117.33333332 485.6c0 136.656 72.912 259.728 186.84 343.032 9.192 6.552 15.12 17.424 15.12 29.424 0 3.792-1.08 7.608-2.16 11.424-9.168 34.32-23.76 88.752-24.288 91.488-1.08 4.344-2.712 8.712-2.712 13.056 0 9.816 8.088 17.976 17.808 17.976 3.792 0 7.032-1.632 10.272-3.264l118.8-67.536a53.04 53.04 0 0 1 28.608-8.16c5.424 0 10.8 1.104 15.672 2.16a639.84 639.84 0 0 0 176.04 25.08c298.08 0 540-203.112 540-453.6 0-75.696-22.128-147.576-61.56-210.192L514.22133332 638.048l-3.768 2.184z" fill="#00AC1C" p-id="54910"></path></svg>