<?xml version="1.0" standalone="no"?><!DOCTYPE svg PUBLIC "-//W3C//DTD SVG 1.1//EN" "http://www.w3.org/Graphics/SVG/1.1/DTD/svg11.dtd"><svg t="1775011610154" class="icon" viewBox="0 0 2048 1024" version="1.1" xmlns="http://www.w3.org/2000/svg" p-id="65286" xmlns:xlink="http://www.w3.org/1999/xlink" width="400" height="200"><path d="M546.73282595 478.80534299a2.55343514 2.55343514 0 0 1 2.55343516 2.55343516v61.2824437a2.55343514 2.55343514 0 0 1-2.55343516 2.55343516H417.35877815a2.55343514 2.55343514 0 0 1-2.55343515-2.55343516V481.35877814a2.55343514 2.55343514 0 0 1 2.55343515-2.55343515h129.3740478m1e-8-0.85114505H417.35877815a3.4045802 3.4045802 0 0 0-3.4045802 3.4045802v61.28244371a3.4045802 3.4045802 0 0 0 3.4045802 3.40458021h129.3740478a3.4045802 3.4045802 0 0 0 3.40458021-3.40458021V481.35877814a3.4045802 3.4045802 0 0 0-3.4045802-3.4045802z" fill="#ffffff" p-id="65287"></path><path d="M1400.16526223 320.19797333c7.86432 14.56355555 5.67978667 12.81592889 14.56355556 14.56355556h22.42787555c-5.38851555-7.42741333-10.34012445-22.57351111-13.68974222-28.25329778a10.63139555 10.63139555 0 0 0-8.88376889-4.66033778h-23.59296a91.45912889 91.45912889 0 0 1 8.88376889 19.07825778" fill="#082F67" p-id="65288"></path><path d="M934.42275556 554.23431111zM943.88906668 554.23431111h-9.46631112a56.36096 56.36096 0 0 0 9.46631112 0" fill="#004889" p-id="65289"></path><path d="M198.08938668 270.68188445h192.53020444a37.57397333 37.57397333 0 0 1 37.28270222 48.93354666l-89.56586666 384.91477334a65.39036445 65.39036445 0 0 1-60.14748445 48.7879111H85.51310223a37.42833778 37.42833778 0 0 1-37.28270222-48.7879111l89.71150222-384.91477334a65.24472889 65.24472889 0 0 1 60.14748445-48.93354666" fill="#ED171F" p-id="65290"></path><path d="M375.18222223 270.68188445h220.92913778c26.94257778 0 14.56355555 21.84533333 8.44686222 48.93354666l-89.71150222 384.91477334c-6.26232889 26.94257778-4.36906667 48.78791111-31.31164445 48.7879111h-221.36604444a37.42833778 37.42833778 0 0 1-37.28270222-48.7879111l89.71150222-384.91477334A65.39036445 65.39036445 0 0 1 375.18222223 270.68188445" fill="#082F67" p-id="65291"></path><path d="M587.37322668 270.68188445h192.53020444a37.57397333 37.57397333 0 0 1 37.28270222 48.93354666L727.62026668 704.53020445a65.39036445 65.39036445 0 0 1-60.14748445 48.7879111H474.94257779a37.42833778 37.42833778 0 0 1-37.28270223-48.7879111l89.56586667-384.91477334a65.39036445 65.39036445 0 0 1 60.14748445-48.93354666" fill="#006A65" p-id="65292"></path><path d="M555.1877689 632.73187555h18.20444444l5.67978667-17.47626666h-18.64135111z m14.56355556-48.20536888l-6.2623289 20.68024888a87.38133333 87.38133333 0 0 1 10.63139556-4.66033777c3.64088889-1.16508445 9.32067555-1.16508445 9.32067556-1.16508445l4.36906666-14.56355555h-18.05880888z m9.02940444-29.12711112l-5.97105778 19.95207112a96.11946667 96.11946667 0 0 1 10.34012444-5.09724445 59.71057778 59.71057778 0 0 1 9.32067556-1.31072l4.36906667-14.56355555H579.07200001z m40.19541333 0l-23.44732444 77.62375112h6.26232889l-4.80597334 16.01991111h-6.40796444l-1.45635556 4.95160889h-22.42787555l1.45635555-4.95160889h-45.29265778l4.51470223-14.56355556h4.51470222l23.88423111-78.93447111 4.80597334-15.87427556h22.71914666l-2.33016889 8.00995556a42.67121778 42.67121778 0 0 1 11.79648-5.82542222c5.67978667-1.60199111 38.73905778-2.03889778 38.73905778-2.03889778l-4.80597333 15.72864h-7.86432z" fill="#FFFFFF" p-id="65293"></path><path d="M628.87936001 539.08821333h24.32113778v9.02940445c0 1.45635555 1.16508445 2.18453333 3.93216 2.18453333h4.95160889l-4.51470222 14.56355556h-13.1072c-11.35957333 0.87381333-15.72864-4.07779555-15.4373689-9.61194667zM632.08334223 610.01272889h-23.15605333l3.93216-13.39847111h26.50567111l3.78652445-11.79648h-26.2144l4.51470222-14.56355556h72.81777778l-4.51470223 14.56355556h-24.32113777l-3.78652445 12.08775111h24.46677333l-4.07779555 13.39847111h-26.50567111l-4.66033778 5.67978667h10.77703111l2.62144 16.74808888a9.17504 9.17504 0 0 0 0.87381333 3.49525334 13.25283555 13.25283555 0 0 0 5.67978667 0.87381333h3.20398222l-5.09724444 16.16554667h-14.12664889a15.72864 15.72864 0 0 1-5.97105778-2.47580444 8.15559111 8.15559111 0 0 1-4.36906666-5.67978667L642.13219556 628.50844445l-12.0877511 16.0199111a20.53461333 20.53461333 0 0 1-17.76753778 9.17504h-16.74808889l4.36906667-14.56355555h6.40796444a10.48576 10.48576 0 0 0 4.66033778-1.31072 7.28177778 7.28177778 0 0 0 3.64088888-3.05834667zM378.2405689 573.60384h61.45820444l-4.51470222 14.56355555h-24.61240889l-3.78652444 12.52465778h25.19495111l-4.51470222 14.56355556h-25.34058667l-6.11669333 20.38897778c-0.72817778 2.18453333 5.97105778 2.47580445 8.30122666 2.47580444l12.52465778-1.74762666-5.09724444 16.74808888h-28.10766222a29.12711111 29.12711111 0 0 1-6.40796445-0.87381333 6.69923555 6.69923555 0 0 1-4.51470222-3.34961778 6.40796445 6.40796445 0 0 1-1.45635556-6.5536l8.15559111-26.94257777h-14.56355555l4.66033777-15.29173334h14.56355556l3.64088889-12.52465778h-14.56355555zM418.8728889 547.24380445h25.19495111l-4.66033778 15.29173333H405.7656889l-3.78652444 3.20398222a12.52465778 12.52465778 0 0 1-4.22343112 2.03889778 24.90368 24.90368 0 0 1-11.35957333 2.91271111H375.18222223l4.51470223-14.56355556h3.34961777a11.65084445 11.65084445 0 0 0 5.82542223-0.43690666 13.68974222 13.68974222 0 0 0 3.78652444-4.80597334l6.26232889-11.50520888h25.04931555z" fill="#FFFFFF" p-id="65294"></path><path d="M467.95207112 572.43875555a39.3216 39.3216 0 0 1 18.64135111-8.30122666h19.36952889l2.47580444-8.44686222h-35.38944z m33.20490667 6.40796445h-35.24380445l-2.18453333 7.13614222h30.43783111a22.13660445 22.13660445 0 0 1 4.66033778 0z m-45.58392889-39.75850667H477.12711112l-3.05834666 10.77703112a63.64273778 63.64273778 0 0 1 11.50520888-7.28177778 109.66357333 109.66357333 0 0 1 15.43736889-3.34961778H535.38133334l-11.65084444 39.17596444a45.58392889 45.58392889 0 0 1-5.67978667 13.1072 14.56355555 14.56355555 0 0 1-5.82542222 5.38851556 21.69969778 21.69969778 0 0 1-8.00995555 2.62144h-44.2732089l-9.4663111 31.16600889a7.71868445 7.71868445 0 0 0 0 5.38851555 3.78652445 3.78652445 0 0 0 3.20398222 1.60199112l14.56355555-1.45635556-5.67978667 17.47626666h-28.25329777a12.81592889 12.81592889 0 0 1-6.99050667-1.31072 8.59249778 8.59249778 0 0 1-3.78652444-4.95160888 58.25422222 58.25422222 0 0 1 1.89326222-8.30122667z" fill="#FFFFFF" p-id="65295"></path><path d="M518.05070223 602.58531555l-2.03889777 9.46631112a12.81592889 12.81592889 0 0 1-3.78652445 7.13614222 15.43736889 15.43736889 0 0 1-11.50520889 4.07779556h-11.79648v10.63139555c0 3.05834667 0 2.76707555 1.16508444 3.20398222a4.07779555 4.07779555 0 0 0 1.60199112 1.01944889h15.14609778l-4.9516089 15.29173334h-13.1072a41.65176889 41.65176889 0 0 1-18.20444444-1.89326223 5.97105778 5.97105778 0 0 1-2.47580444-6.11669333l0.87381333-41.65176889h20.82588445v8.44686222h5.09724444a7.57304889 7.57304889 0 0 0 3.49525333 0 4.66033778 4.66033778 0 0 0 1.45635556-2.18453333l2.03889777-6.69923556h16.31118223zM220.80853334 393.59829333c-0.72817778 3.34961778-14.56355555 64.95345778-14.56355555 65.09909334a45.29265778 45.29265778 0 0 1-12.08775111 27.08821333 21.69969778 21.69969778 0 0 1-14.56355556 4.95160889 13.1072 13.1072 0 0 1-14.56355556-12.67029334v-2.9127111s2.62144-16.74808889 2.76707556-16.7480889 14.56355555-56.21532445 16.60245334-63.64273777v-0.72817778a227.62837333 227.62837333 0 0 1-32.4767289 0l-0.87381333 4.07779555-14.56355555 63.35146667-1.31072 5.38851556-2.33016889 17.47626667a25.77749333 25.77749333 0 0 0 3.05834667 13.1072c6.5536 11.50520889 25.19495111 13.1072 35.6807111 13.1072a69.61379555 69.61379555 0 0 0 34.80689778-8.15559112A51.84625778 51.84625778 0 0 0 229.54666668 467.14424889l1.60199111-6.26232889s14.56355555-58.25422222 16.89372444-65.97290667a3.49525333 3.49525333 0 0 1 0-0.87381333 222.8224 222.8224 0 0 1-27.52512 0M300.76245334 509.52419555h-24.46677333v-0.72817777l3.05834667-12.96156445 1.45635555-5.82542222c2.03889778-9.17504 4.22343111-19.80643555 4.36906667-23.01041778a4.95160889 4.95160889 0 0 0-4.66033778-6.84487111 18.93262222 18.93262222 0 0 0-7.28177778 2.33016889c-1.31072 4.95160889-4.07779555 18.49571555-5.38851555 24.90368-2.76707555 13.1072-3.05834667 14.56355555-4.22343111 21.11715556l-0.87381334 0.87381333h-24.90368v-0.87381333l5.67978667-23.59296a341.95228445 341.95228445 0 0 0 7.28177778-40.04977778h0.87381333c11.21393778-1.60199111 14.56355555-1.89326222 26.06876444-4.36906667l1.0194489 1.16508445-1.74762667 6.69923555c2.03889778-1.16508445 3.93216-2.47580445 6.11669333-3.49525333a38.01088 38.01088 0 0 1 15.58300444-3.64088889 13.1072 13.1072 0 0 1 13.54410667 7.57304889 45.29265778 45.29265778 0 0 1-2.18453333 25.48622222l-1.60199111 6.69923556c-3.05834667 14.56355555-3.64088889 17.47626667-5.38851556 27.67075555zM340.08405334 509.52419555h-25.92312888a75.00231111 75.00231111 0 0 1 2.76707555-10.04885333 67.86616889 67.86616889 0 0 0 2.76707555-9.61194667c1.74762667-7.42741333 2.76707555-12.67029333 3.49525334-17.03936s1.16508445-8.15559111 1.74762666-12.52465777l13.25283556-1.89326223 13.68974222-2.47580444c-1.16508445 4.66033778-2.33016889 9.17504-3.34961778 14.56355556l-2.47580444 13.25283555c-2.18453333 9.75758222-3.05834667 13.39847111-3.49525333 16.01991111s0 3.78652445-1.45635556 8.88376889zM401.8335289 475.15420445a51.11808 51.11808 0 0 1-5.67978667 15.87427555 9.32067555 9.32067555 0 0 1-7.28177777 4.66033778 5.82542222 5.82542222 0 0 1-5.67978667-7.13614223 46.89464889 46.89464889 0 0 1 1.45635555-11.06830222c2.47580445-11.21393778 5.53415111-20.68024889 13.25283556-20.68024888s6.40796445 6.99050667 3.78652444 18.35008m25.34058667 1.01944888a29.12711111 29.12711111 0 0 0-2.47580445-26.06876444 29.12711111 29.12711111 0 0 0-23.30168888-8.44686222 42.67121778 42.67121778 0 0 0-29.12711112 10.04885333 48.20536889 48.20536889 0 0 0-12.96156444 25.19495111c-2.03889778 9.02940445-4.51470222 25.48622222 10.63139556 31.60291556a45.43829333 45.43829333 0 0 0 15.72864 2.47580444 40.92359111 40.92359111 0 0 0 30.87473778-12.08775111 54.03079111 54.03079111 0 0 0 10.63139555-22.71914667M678.97799112 442.24056889c-12.08775111 2.18453333-15.29173333 2.62144-26.94257778 4.36906666h-0.87381333v2.76707556a16.45681778 16.45681778 0 0 0-8.44686222-6.99050666 32.33109333 32.33109333 0 0 0-27.67075556 10.04885333 47.33155555 47.33155555 0 0 0-12.96156444 25.04931555c-2.03889778 8.88376889-4.51470222 25.34058667 10.48576 31.16600889a30.14656 30.14656 0 0 0 13.39847111 2.47580445 22.13660445 22.13660445 0 0 0 12.81592889-5.82542222l-1.45635556 4.66033777v0.87381333h25.77749333l1.0194489-0.87381333c1.74762667-10.04885333 3.34961778-19.80643555 7.86432-39.03032889l6.5536-27.52512z m-38.30215111 49.95299556a13.39847111 13.39847111 0 0 1-9.46631111 4.51470222 5.82542222 5.82542222 0 0 1-5.67978667-6.99050667 49.22481778 49.22481778 0 0 1 1.60199111-11.06830222c2.62144-11.06830222 5.53415111-20.38897778 13.25283556-20.38897778 4.80597333 0 7.42741333 4.51470222 6.84487111 12.08775111l-1.31072 6.26232889c-0.72817778 3.34961778-1.60199111 6.5536-2.47580445 9.90321778a23.30168889 23.30168889 0 0 1-2.76707555 5.67978667M493.29265779 509.52419555h-24.46677333v-0.72817777l3.05834666-12.96156445 1.31072-5.82542222c2.03889778-9.17504 4.22343111-19.80643555 4.36906667-23.01041778a4.95160889 4.95160889 0 0 0-4.66033778-6.84487111 18.78698667 18.78698667 0 0 0-7.28177778 2.33016889c-1.31072 4.95160889-4.07779555 18.49571555-5.53415111 24.90368-2.76707555 13.1072-2.91271111 14.56355555-4.22343111 21.11715556l-0.87381333 0.87381333h-24.90368v-0.87381333l5.67978666-23.59296a337.43758222 337.43758222 0 0 0 7.28177778-40.04977778h0.87381334c11.21393778-1.60199111 14.56355555-1.89326222 26.06876444-4.36906667l1.01944889 1.16508445-1.74762667 6.69923555 6.11669334-3.49525333a37.86524445 37.86524445 0 0 1 15.58300444-3.64088889 13.39847111 13.39847111 0 0 1 13.68974222 7.57304889 45.8752 45.8752 0 0 1-2.33016889 25.48622222l-1.60199111 6.69923556c-3.20398222 14.56355555-3.64088889 17.47626667-5.38851556 27.67075555zM577.17873779 393.59829333h-40.77795556l-1.01944889 4.07779556-7.28177778 34.80689778-18.78698666 77.47811555h29.12711111c0-3.49525333 4.95160889-24.02986667 4.95160889-24.02986667s3.64088889-14.56355555 3.78652444-15.72864A8.59249778 8.59249778 0 0 1 549.9448889 468.30933333h1.60199111a77.33248 77.33248 0 0 0 47.47719111-10.34012444 50.68117333 50.68117333 0 0 0 18.93262222-30.00092444 46.45774222 46.45774222 0 0 0 1.31072-10.48576 21.99096889 21.99096889 0 0 0-3.78652444-13.39847112c-7.13614222-9.90321778-21.26279111-10.04885333-37.57397334-10.19448888m10.48576 36.11761777a25.48622222 25.48622222 0 0 1-13.1072 17.33063111 41.50613333 41.50613333 0 0 1-18.49571555 2.91271112h-4.36906667v-1.74762667l8.00995556-34.51562667V410.05511111h3.20398222l16.89372444 1.45635556a13.68974222 13.68974222 0 0 1 7.28177778 17.47626666M350.7154489 450.10488889c6.40796445-4.36906667 7.13614222-10.63139555 1.74762666-13.83537778A21.99096889 21.99096889 0 0 0 331.49155556 439.18222222c-6.40796445 4.36906667-7.13614222 10.63139555-1.74762666 13.83537778a21.99096889 21.99096889 0 0 0 21.40842666-2.18453333M759.6600889 442.09493333l-0.87381334-1.01944888c-11.94211555 2.33016889-14.56355555 2.76707555-25.04931555 4.2234311l-0.87381333 0.87381334c-8.15559111 18.93262222-7.86432 14.56355555-14.56355556 29.12711111v-1.74762667l-2.03889778-31.45728-1.01944888-1.01944888c-12.52465778 2.33016889-12.81592889 2.76707555-24.32113778 4.2234311l-0.87381334 0.87381334v1.31072a158.59712 158.59712 0 0 1 2.47580445 17.33063111c0 5.67978667 1.60199111 11.50520889 2.18453333 17.18499555 1.16508445 9.46631111 1.89326222 14.56355555 3.20398222 29.12711112-7.71868445 12.96156445-9.61194667 17.76753778-17.03936 29.12711111l-5.24288 8.44686222a4.22343111 4.22343111 0 0 1-1.89326222 1.74762667 8.59249778 8.59249778 0 0 1-3.49525333 0H666.45333334l-4.36906666 14.56355555h14.56355555A18.49571555 18.49571555 0 0 0 695.58044446 555.69066667l9.4663111-16.16554667 1.0194489-1.16508445c6.26232889-13.54410667 54.46769778-96.26510222 54.46769777-96.26510222" fill="#FFFFFF" p-id="65296"></path><path d="M1871.73319112 439.18222222c7.71868445 15.29173333 7.86432 14.56355555 17.18499556 15.29173333h25.77749333c-5.38851555-7.71868445-18.35008-43.69066667-21.84533333-49.22481777a15.58300445 15.58300445 0 0 0-12.08775112-4.80597333h-23.73859555s9.32067555 23.73859555 14.56355555 38.59342222" fill="#082F67" p-id="65297"></path><path d="M1997.85358223 302.57607111h-30.29219555l-9.02940445 38.59342222h-125.53784889l-4.07779555 17.47626667h125.39221333v1.01944889L1918.91911112 514.33016889a42.23431111 42.23431111 0 0 1-4.80597333 15.58300444 19.95207111 19.95207111 0 0 1-19.51516445 6.84487112h-45.58392888a24.17550222 24.17550222 0 0 0 0 9.75758222 16.31118222 16.31118222 0 0 0 16.89372444 7.71868444h54.03079111a24.90368 24.90368 0 0 0 23.59296-17.62190222l41.21486222-177.96664889h28.10766223a14.56355555 14.56355555 0 0 0 0-11.94211555 15.87427555 15.87427555 0 0 0-14.56355556-5.53415112h-9.02940444z" fill="#082F67" p-id="65298"></path><path d="M1752.16640001 554.52558222h30.29219555l38.88469334-168.35470222c7.86432-13.39847111 17.76753778-30.87473778 29.12711111-51.99189333 4.51470222-7.57304889 12.81592889-22.28224 14.56355555-25.04931556l3.05834667-6.40796444h-30.43783111l-1.89326222 3.49525333c-13.68974222 24.61240889-30.58346667 54.32206222-40.19541334 69.46816-16.01991111 25.48622222-30.29219555 40.77795555-40.34104888 43.69066667l-4.36906667 19.07825778h4.22343111a87.38133333 87.38133333 0 0 0 25.04931556-5.09724445zM1443.8559289 358.64576a23.88423111 23.88423111 0 0 0-1.16508444-9.02940445 14.56355555 14.56355555 0 0 0-13.68974223-8.44686222h-113.45009777a24.46677333 24.46677333 0 0 0-18.78698667 8.44686222l-2.47580445 2.18453334c-11.94211555 12.67029333-38.30215111 42.23431111-44.71011555 48.78791111h-27.08821333l10.7770311-12.37902222c16.01991111-18.35008 77.76938667-86.65315555 77.76938667-86.65315556h-22.86478222a16.45681778 16.45681778 0 0 0-8.00995555 2.18453333 33.05927111 33.05927111 0 0 0-10.1944889 8.15559112s-46.89464889 54.90460445-67.1379911 77.04120888a32.91363555 32.91363555 0 0 0-6.40796445 11.5052089 13.25283555 13.25283555 0 0 0 14.56355555 17.62190222h24.46677334c-26.79694222 29.12711111-39.3216 43.69066667-52.4288 56.79786666a25.19495111 25.19495111 0 0 0-6.5536 14.56355556s1.74762667-7.28177778 0-1.16508444c-3.05834667 11.94211555 15.87427555 12.52465778 15.87427556 12.52465777h58.25422222a20.38897778 20.38897778 0 0 0 12.96156444-5.97105777 24.90368 24.90368 0 0 0 4.36906667-11.06830223H1205.3048889s85.77934222-96.41073778 99.17781333-110.24611555a34.36999111 34.36999111 0 0 1 24.17550223-14.56355556h115.48899555z" fill="#082F67" p-id="65299"></path><path d="M1429.58364446 418.93888a14.56355555 14.56355555 0 0 0-0.87381334-11.21393778 12.08775111 12.08775111 0 0 0-10.92266666-6.26232889H1307.24977779a19.22389333 19.22389333 0 0 0-13.54410667 7.57304889 16.74808889 16.74808889 0 0 0-4.07779556 10.19448889h139.9557689z" fill="#082F67" p-id="65300"></path><path d="M1407.44704001 547.82634667a26.36003555 26.36003555 0 0 0 7.13614222-11.06830222h-44.41884444a11.35957333 11.35957333 0 0 1-12.81592889-11.79648l19.95207111-221.80295112h-30.72910222L1326.91057779 526.56355555c-1.31072 13.1072 3.93216 28.25329778 35.24380444 28.25329778h27.52512a32.768 32.768 0 0 0 17.76753778-6.40796444M1692.01891556 548.11761778a21.11715555 21.11715555 0 0 0 7.71868445-11.50520889 243.06574222 243.06574222 0 0 1-25.34058667-4.51470222 273.94048 273.94048 0 0 1-67.28362666-43.69066667c24.90368-14.56355555 49.22481778-29.12711111 72.81777778-43.69066667a34.36999111 34.36999111 0 0 0 14.56355555-29.12711111 16.31118222 16.31118222 0 0 0-16.16554667-14.56355555h-61.16693333l10.48576-42.37994667h101.21671111a15.43736889 15.43736889 0 0 0-1.01944889-12.37902222 14.56355555 14.56355555 0 0 0-11.94211555-5.24288h-84.32298667l8.73813333-38.15651556h-31.60291555l-8.73813333 38.15651556h-84.61425778a23.59296 23.59296 0 0 0-13.68974222 4.22343111 19.22389333 19.22389333 0 0 0-6.99050667 13.39847111h101.94488889l-9.61194667 42.52558222h-64.37091555a21.40842667 21.40842667 0 0 0-14.56355556 5.97105778 24.32113778 24.32113778 0 0 0-5.53415111 11.35957333h153.49987555c3.64088889 0 9.90321778 6.84487111-4.66033778 14.56355556-23.73859555 14.56355555-52.72007111 31.31164445-64.66218666 38.73905778-2.47580445-2.18453333-21.11715555-17.47626667-34.22435556-29.12711112a20.38897778 20.38897778 0 0 0-14.56355555-5.67978666h-33.20490667l55.34151111 50.97244444c-14.56355555 8.88376889-31.02037333 18.49571555-49.95299555 29.12711112a98.01272889 98.01272889 0 0 1-37.57397334 14.56355555l-29.12711111 3.93216a14.56355555 14.56355555 0 0 0 2.03889778 11.35957333 10.48576 10.48576 0 0 0 9.75758222 5.97105778h24.32113778a315.44661333 315.44661333 0 0 0 50.82680889-21.84533333c20.09770667-10.34012445 36.40888889-19.22389333 48.49664-26.2144 2.76707555 2.47580445 60.58439111 41.50613333 74.85667556 48.20536889h25.92312888a21.99096889 21.99096889 0 0 0 12.52465778-5.97105778M1120.83626668 536.61240889h-70.48760889l18.78698667-81.11900444h56.79786666a17.47626667 17.47626667 0 0 0-0.87381333-12.96156445 17.33063111 17.33063111 0 0 0-14.56355556-4.22343111h-37.42833777l13.54410666-58.25422222h-31.45728l-13.54410666 58.25422222h-36.4088889a22.42787555 22.42787555 0 0 0-16.31118222 4.22343111 19.51516445 19.51516445 0 0 0-5.97105778 12.96156445h54.7589689l-18.78698667 81.11900444h-50.68117333a14.56355555 14.56355555 0 0 1-14.56355556-9.32067556 24.90368 24.90368 0 0 1 0-13.1072l22.71914666-98.15836444 49.07918223-58.25422222H1161.61422223a14.56355555 14.56355555 0 0 0-1.31072-11.06830222 15.87427555 15.87427555 0 0 0-13.25283555-5.53415112h-106.89649778l4.95160889-5.09724444 28.39893333-33.64181334h-36.26325333c-2.91271111 3.49525333-29.12711111 35.09816889-32.33109333 38.88469334h-53.73952a29.12711111 29.12711111 0 0 0-12.67029334 3.20398222 21.84533333 21.84533333 0 0 0-8.88376889 14.56355556h61.31256889c-57.38040889 69.32252445-58.25422222 75.87612445-83.44917333 89.12896 0 0-3.34961778 14.56355555-4.07779556 17.33063111a113.88700445 113.88700445 0 0 0 35.09816889-19.07825778l-20.82588444 90.29404445a15.87427555 15.87427555 0 0 0 3.34961778 12.67029333 20.38897778 20.38897778 0 0 0 13.83537777 5.24288h161.94673778a24.75804445 24.75804445 0 0 0 19.80643555-7.13614223 19.22389333 19.22389333 0 0 0 4.22343112-10.48576M1261.08330668 530.05880889a21.55406222 21.55406222 0 0 1-14.56355556 8.88376889L1161.61422223 554.23431111a53.88515555 53.88515555 0 0 1 8.73813333-19.36952889 22.86478222 22.86478222 0 0 1 14.56355556-7.42741333l81.70154667-8.00995556a24.90368 24.90368 0 0 1-4.66033778 10.63139556" fill="#082F67" p-id="65301"></path><path d="M1391.13585779 438.01713778a133.25653333 133.25653333 0 0 1-26.50567111 35.97198222 39.17596445 39.17596445 0 0 1-21.69969778 9.46631111h-45.00138667a29.12711111 29.12711111 0 0 0-17.18499555 4.22343111 21.11715555 21.11715555 0 0 0-7.86432 13.39847111h38.44778666c43.69066667 0 55.34151111 0 76.45866667-17.33063111a270.29959111 270.29959111 0 0 0 36.70016-46.02083555h-33.49617778zM883.30467556 674.67491555a74.41976889 74.41976889 0 0 1 10.1944889-24.90368 64.95345778 64.95345778 0 0 1 12.0877511-13.25283555 51.84625778 51.84625778 0 0 1 14.56355556-8.73813333 60.14748445 60.14748445 0 0 1 21.69969778-3.78652445 36.26325333 36.26325333 0 0 1 31.16600889 13.25283556 43.69066667 43.69066667 0 0 1 4.36906667 36.99143111 65.39036445 65.39036445 0 0 1-21.26279112 36.70016 56.21532445 56.21532445 0 0 1-37.13706666 13.25283556 36.26325333 36.26325333 0 0 1-31.31164445-13.1072 43.69066667 43.69066667 0 0 1-4.36906667-36.4088889m20.38897778 0a31.74855111 31.74855111 0 0 0 1.89326222 24.90368 19.36952889 19.36952889 0 0 0 17.33063112 8.44686223 31.02037333 31.02037333 0 0 0 21.11715555-8.44686223 46.89464889 46.89464889 0 0 0 13.68974223-25.77749333 32.18545778 32.18545778 0 0 0-1.60199112-24.90368 19.36952889 19.36952889 0 0 0-17.47626666-8.15559111 31.16600889 31.16600889 0 0 0-21.40842667 8.30122667 46.45774222 46.45774222 0 0 0-13.25283555 25.04931555M1045.10577779 722.58901333h-18.49571556L1034.9112889 686.76266667a56.65223111 56.65223111 0 0 0 2.18453333-14.56355556 7.71868445 7.71868445 0 0 0-2.62144-5.24288 9.02940445 9.02940445 0 0 0-5.97105777-1.89326222 18.05880889 18.05880889 0 0 0-9.32067556 2.62144 18.64135111 18.64135111 0 0 0-6.84487111 6.99050666 67.72053333 67.72053333 0 0 0-5.09724445 16.16554667l-7.28177778 31.74855111h-18.6413511l16.16554666-70.19633778h17.33063111l-2.33016889 10.34012445a36.11761778 36.11761778 0 0 1 25.92312889-11.94211555 24.75804445 24.75804445 0 0 1 10.77703111 2.18453333 13.68974222 13.68974222 0 0 1 6.40796445 5.67978667 16.60245333 16.60245333 0 0 1 1.89326222 7.71868444 58.25422222 58.25422222 0 0 1-1.89326222 12.52465778zM1064.03840001 722.58901333l22.42787555-96.99328h18.49571556l-22.28224 96.99328H1064.03840001zM1101.7580089 722.58901333L1117.92355556 652.39267555h18.64135112l-16.16554667 70.19633778h-18.64135111zM1120.1080889 643.072l3.93216-17.18499555h18.64135111L1138.74944001 643.072h-18.64135111zM1203.12035556 722.58901333h-18.49571555l8.30122667-35.82634666a57.38040889 57.38040889 0 0 0 2.18453333-14.56355556 7.71868445 7.71868445 0 0 0-2.62144-5.24288 9.02940445 9.02940445 0 0 0-5.97105778-1.89326222 18.05880889 18.05880889 0 0 0-9.32067555 2.62144 18.64135111 18.64135111 0 0 0-6.84487112 6.99050666 68.44871111 68.44871111 0 0 0-5.09724444 16.16554667l-7.28177778 31.74855111h-18.78698666l16.16554666-70.19633778h17.18499556l-2.33016889 10.34012445a36.11761778 36.11761778 0 0 1 25.92312889-11.94211555 24.75804445 24.75804445 0 0 1 10.77703111 2.18453333 13.68974222 13.68974222 0 0 1 6.40796445 5.67978667 16.60245333 16.60245333 0 0 1 1.89326222 7.71868444 59.27367111 59.27367111 0 0 1-1.89326222 12.52465778zM1267.78254223 700.16113778l17.76753778 3.05834667a42.08867555 42.08867555 0 0 1-14.56355555 15.43736888 39.03032889 39.03032889 0 0 1-20.53461334 5.38851556 24.61240889 24.61240889 0 0 1-24.32113778-11.94211556 35.97198222 35.97198222 0 0 1-1.31072-24.17550222 49.66172445 49.66172445 0 0 1 15.43736889-27.37948444 37.71960889 37.71960889 0 0 1 25.34058667-9.90321778 24.61240889 24.61240889 0 0 1 22.28224 10.34012444 41.06922667 41.06922667 0 0 1 1.31072 31.74855112h-46.60337778a16.31118222 16.31118222 0 0 0 1.60199111 12.81592888 11.06830222 11.06830222 0 0 0 9.61194667 4.51470222 14.56355555 14.56355555 0 0 0 7.86432-2.33016888 20.24334222 20.24334222 0 0 0 6.26232889-7.71868445m5.38851555-18.78698667a15.43736889 15.43736889 0 0 0-1.31072-12.23338666 9.90321778 9.90321778 0 0 0-8.73813333-4.22343111 16.31118222 16.31118222 0 0 0-11.06830222 4.36906667 21.84533333 21.84533333 0 0 0-6.69923556 12.0877511h27.81639111zM1372.64014223 722.58901333L1394.63111112 625.59573333h31.31164444a107.47904 107.47904 0 0 1 23.01041778 1.45635556 18.49571555 18.49571555 0 0 1 11.79648 9.46631111 26.50567111 26.50567111 0 0 1 1.31072 18.78698667 38.73905778 38.73905778 0 0 1-6.69923555 14.56355555 37.13706667 37.13706667 0 0 1-21.69969778 14.56355556 115.63463111 115.63463111 0 0 1-20.68024889 1.45635555h-12.67029333l-8.44686223 36.55452445h-19.51516444z m38.15651556-80.53646222l-6.40796445 27.52512h10.77703112a54.17642667 54.17642667 0 0 0 15.87427555-1.60199111 17.62190222 17.62190222 0 0 0 7.13614222-4.80597333 16.74808889 16.74808889 0 0 0 3.93216-7.57304889 10.77703111 10.77703111 0 0 0-1.16508444-8.73813333 10.19448889 10.19448889 0 0 0-6.84487111-4.22343112 95.53692445 95.53692445 0 0 0-14.56355556 0h-9.46631111zM1487.98350223 673.80110222l-16.16554667-3.05834667a35.97198222 35.97198222 0 0 1 13.25283556-14.56355555 41.50613333 41.50613333 0 0 1 21.84533334-4.95160889 39.17596445 39.17596445 0 0 1 17.76753777 2.91271111 13.25283555 13.25283555 0 0 1 6.84487111 7.42741333 36.84579555 36.84579555 0 0 1-1.31072 16.60245334l-5.24288 21.69969778a79.22574222 79.22574222 0 0 0-2.33016888 13.68974222 34.07872 34.07872 0 0 0 1.16508444 9.46631111h-18.35008v-5.53415111a21.11715555 21.11715555 0 0 0 0-2.18453334 45.14702222 45.14702222 0 0 1-11.79648 6.99050667 33.35054222 33.35054222 0 0 1-12.08775111 2.33016889 19.36952889 19.36952889 0 0 1-15.72864-5.97105778 16.31118222 16.31118222 0 0 1-2.76707556-14.56355555 25.34058667 25.34058667 0 0 1 5.24288-10.63139556 25.63185778 25.63185778 0 0 1 9.61194667-7.13614222 72.81777778 72.81777778 0 0 1 15.72864-4.36906667 118.11043555 118.11043555 0 0 0 19.07825778-4.51470222v-1.89326222a8.30122667 8.30122667 0 0 0-0.87381334-7.57304889 13.54410667 13.54410667 0 0 0-9.46631111-2.33016889 15.58300445 15.58300445 0 0 0-8.15559111 1.89326222 19.07825778 19.07825778 0 0 0-6.11669333 6.84487112m21.40842667 14.56355555a119.56679111 119.56679111 0 0 1-11.94211556 2.76707555 43.69066667 43.69066667 0 0 0-10.77703111 3.20398223 10.48576 10.48576 0 0 0-4.80597333 6.40796444 7.57304889 7.57304889 0 0 0 1.31072 6.69923556 8.15559111 8.15559111 0 0 0 6.69923555 2.76707555 19.6608 19.6608 0 0 0 10.34012445-3.34961778 16.16554667 16.16554667 0 0 0 5.82542222-6.11669333 41.65176889 41.65176889 0 0 0 2.76707555-9.02940444zM1545.50954668 652.39267555h19.80643555l5.24288 49.80736 27.96202667-49.80736h19.22389333l-40.34104889 67.57489778-7.28177778 12.23338667a66.40981333 66.40981333 0 0 1-6.8448711 9.32067555 29.12711111 29.12711111 0 0 1-6.2623289 5.24288 29.12711111 29.12711111 0 0 1-7.86432 3.05834667 39.03032889 39.03032889 0 0 1-9.75758222 1.16508445 44.41884445 44.41884445 0 0 1-10.19448888-1.16508445l1.74762666-14.56355555a39.17596445 39.17596445 0 0 0 7.71868444 0.87381333 14.56355555 14.56355555 0 0 0 10.48576-3.78652445 35.68071111 35.68071111 0 0 0 6.99050667-9.61194666zM1627.64800001 652.39267555h17.18499555l-2.18453333 9.61194667a35.53507555 35.53507555 0 0 1 24.46677333-11.21393777 20.24334222 20.24334222 0 0 1 11.06830223 2.76707555 15.29173333 15.29173333 0 0 1 6.26232889 8.44686222 45.14702222 45.14702222 0 0 1 11.94211555-8.44686222 29.12711111 29.12711111 0 0 1 12.08775111-2.76707555 21.69969778 21.69969778 0 0 1 12.37902222 3.20398222 14.56355555 14.56355555 0 0 1 5.82542223 9.17504 39.3216 39.3216 0 0 1-1.45635556 14.56355555l-10.19448889 44.85575111h-18.64135111l9.32067556-40.04977778a29.12711111 29.12711111 0 0 0 1.16508444-13.3984711 6.84487111 6.84487111 0 0 0-6.99050667-3.93216 15.29173333 15.29173333 0 0 0-7.86432 2.33016888 18.49571555 18.49571555 0 0 0-6.5536 6.99050667 57.38040889 57.38040889 0 0 0-4.80597333 14.56355555l-7.71868444 33.7874489h-18.64135111l8.88376888-38.44778667a54.03079111 54.03079111 0 0 0 2.03889778-13.25283556 6.40796445 6.40796445 0 0 0-2.03889778-4.51470222 8.44686222 8.44686222 0 0 0-5.38851555-1.45635555 15.87427555 15.87427555 0 0 0-8.30122667 2.33016888 17.47626667 17.47626667 0 0 0-6.40796444 6.69923556 56.06968889 56.06968889 0 0 0-4.80597334 14.56355556l-7.86432 34.07872h-18.6413511zM1779.69152001 700.16113778l17.76753778 3.05834667a41.94304 41.94304 0 0 1-14.56355556 15.43736888 39.03032889 39.03032889 0 0 1-20.53461333 5.38851556 24.61240889 24.61240889 0 0 1-24.32113778-11.94211556 35.97198222 35.97198222 0 0 1-1.31072-24.17550222 49.95299555 49.95299555 0 0 1 15.43736889-27.37948444 37.86524445 37.86524445 0 0 1 25.34058667-9.90321778 24.61240889 24.61240889 0 0 1 22.28224 10.34012444 41.06922667 41.06922667 0 0 1 1.31072 31.74855112h-46.60337778a16.31118222 16.31118222 0 0 0 1.45635556 12.81592888 11.06830222 11.06830222 0 0 0 9.61194666 4.51470222 14.56355555 14.56355555 0 0 0 7.86432-2.33016888 20.38897778 20.38897778 0 0 0 6.26232889-7.71868445m5.38851555-18.78698667a15.43736889 15.43736889 0 0 0-1.31072-12.23338666 9.90321778 9.90321778 0 0 0-8.73813333-4.22343111 16.31118222 16.31118222 0 0 0-11.06830222 4.36906667 21.69969778 21.69969778 0 0 0-6.69923555 12.0877511h27.8163911zM1872.89827556 722.58901333h-18.6413511l8.44686222-35.82634666a56.94350222 56.94350222 0 0 0 2.18453333-14.56355556 7.57304889 7.57304889 0 0 0-2.62144-5.24288 9.02940445 9.02940445 0 0 0-5.97105778-1.89326222 18.05880889 18.05880889 0 0 0-9.32067555 2.62144 18.64135111 18.64135111 0 0 0-6.84487112 6.99050666 68.01180445 68.01180445 0 0 0-5.09724444 16.16554667l-7.28177778 31.74855111h-18.49571555l16.16554667-70.19633778h17.3306311l-2.33016888 10.34012445a36.11761778 36.11761778 0 0 1 25.92312888-11.94211555 24.75804445 24.75804445 0 0 1 10.77703112 2.18453333 13.54410667 13.54410667 0 0 1 6.40796444 5.67978667 16.74808889 16.74808889 0 0 1 1.89326222 7.71868444 59.71057778 59.71057778 0 0 1-1.89326222 12.52465778zM1940.91008001 651.95576889l-3.34961778 14.56355556h-12.81592889l-5.82542222 28.39893333a74.27413333 74.27413333 0 0 0-1.89326222 10.04885333 3.05834667 3.05834667 0 0 0 1.16508444 2.33016889 4.36906667 4.36906667 0 0 0 2.91271112 0.87381333 29.12711111 29.12711111 0 0 0 7.86432-1.74762666l-1.74762667 14.56355555a41.94304 41.94304 0 0 1-15.29173333 2.76707556 20.38897778 20.38897778 0 0 1-8.59249778-1.74762667 9.61194667 9.61194667 0 0 1-4.95160889-4.36906666 14.56355555 14.56355555 0 0 1-0.87381333-7.28177778 90.87658667 90.87658667 0 0 1 2.47580444-13.1072l7.13614222-30.58346667h-8.44686222l3.34961778-14.56355555h8.59249778l4.2234311-24.75804445H1933.48266668l-5.67978667 24.75804445h12.67029333z" fill="#082F67" p-id="65302"></path></svg>